<svg width="50" height="50" viewBox="0 0 50 50" fill="none" xmlns="http://www.w3.org/2000/svg">
<path fill-rule="evenodd" clip-rule="evenodd" d="M24.2735 7.08253C24.9794 6.38527 26.5619 6 27.5613 6C29.3878 6 31.2143 6.00067 33.0408 6.00135C35.3836 6.00221 37.7265 6.00308 40.0693 6.00252C42.2387 6.002 43.998 7.73977 43.9975 9.88275C43.9969 12.1966 43.9978 14.5104 43.9986 16.8242C43.9993 18.6288 44 20.4334 44 22.238C44 23.2252 43.6124 24.7859 42.9041 25.4856L24.2735 43.8886C23.4207 44.8681 22.5803 44.3147 22.0817 43.8886L5.64296 27.6506C4.65129 26.8814 4.93144 26.0513 5.64296 25.4856L24.2735 7.08253ZM33.2256 21.3471C35.8558 21.3471 37.9879 19.2409 37.9879 16.6428C37.9879 14.0448 35.8558 11.9386 33.2256 11.9386C30.5954 11.9386 28.4632 14.0448 28.4632 16.6428C28.4632 19.2409 30.5954 21.3471 33.2256 21.3471Z" fill="url(#paint0_linear_1_418)"/>
<defs>
<linearGradient id="paint0_linear_1_418" x1="44" y1="44.4348" x2="5.56933" y2="5.43892" gradientUnits="userSpaceOnUse">
<stop stop-color="#FFE3B1"/>
<stop offset="1" stop-color="#FFD58A"/>
</linearGradient>
</defs>
</svg>
