<svg width="21" height="22" viewBox="0 0 21 22" fill="none" xmlns="http://www.w3.org/2000/svg">
<path d="M18.0787 9.96045H20.0787C20.0787 4.82988 16.21 0.960449 11.0787 0.960449V2.96045C15.1362 2.96045 18.0787 5.904 18.0787 9.96045Z" fill="black"/>
<path d="M11.0788 6.96039C13.3218 6.96039 14.0788 7.71746 14.0788 9.96039H16.0788C16.0788 6.52081 14.5186 4.96039 11.0788 4.96039V6.96039ZM14.0788 12.9604C13.8738 12.7741 14.3556 12.9518 14.0788 12.9604C13.8019 12.9689 13.2718 12.7618 13.0788 12.9604L10.0788 15.9604C9.46439 15.8431 8.35016 15.2285 7.07876 13.9604C5.80736 12.688 5.19288 11.5704 5.07876 10.9604L8.07876 7.96039C8.27759 7.76748 8.0702 7.23728 8.07876 6.96039C8.08732 6.6835 8.26529 7.16521 8.07876 6.96039L4.07876 1.96039C3.89214 1.75493 3.35578 1.97771 3.07876 1.96039C2.80173 1.94306 3.28952 1.77978 3.07876 1.96039L0.0787569 3.96039C-0.105649 4.14545 0.0936037 4.69957 0.0787569 4.96039C0.0627577 5.22702 0.180874 11.0607 5.07876 15.9604C9.3516 20.2319 14.6047 20.9604 16.0788 20.9604C16.2942 20.9604 16.0436 20.9625 16.0788 20.9604C16.3396 20.9458 16.8946 21.1456 17.0788 20.9604L19.0788 17.9604C19.2595 17.7498 19.0959 18.2374 19.0788 17.9604C19.0616 17.6834 19.2841 17.1471 19.0788 16.9604L14.0788 12.9604V12.9604Z" fill="black"/>
</svg>
