<svg width="124" height="125" viewBox="0 0 124 125" fill="none" xmlns="http://www.w3.org/2000/svg">
<ellipse cx="62" cy="62.5" rx="60" ry="60.5" stroke="url(#paint0_linear_19_1035)" stroke-width="3"/>
<path d="M30 85C25.0387 85 21 80.9613 21 76C21 71.0387 25.0387 67 30 67C34.9613 67 39 71.0387 39 76C39 80.9613 34.9613 85 30 85ZM30 70C26.4407 70 24 72.4407 24 76C24 79.5593 26.4407 82 30 82C33.5593 82 36 79.5593 36 76C36 72.4407 33.5593 70 30 70Z" fill="#1C1C1C"/>
<path d="M89 85C84.0387 85 80 80.9613 80 76C80 71.0387 84.0387 67 89 67C93.9613 67 98 71.0387 98 76C98 80.9613 93.9613 85 89 85ZM89 70C85.4407 70 83 72.4407 83 76C83 79.5593 85.4407 82 89 82C92.5593 82 95 79.5593 95 76C95 72.4407 92.5593 70 89 70Z" fill="#1C1C1C"/>
<path d="M71 78H38C37.3061 78 37 77.7074 37 77C37 76.2926 37.3061 75 38 75H69V64H15C14.628 64 15 63.6135 15 64V75C15 75.3792 14.6208 75 15 75H22C22.6939 75 23 76.2926 23 77C23 77.7074 22.6939 78 22 78H15C13.2401 78 12 76.7941 12 75V64C12 62.2059 13.2401 61 15 61H71C71.6939 61 72 61.2926 72 62V77C72 77.7074 71.6939 78 71 78Z" fill="#1C1C1C"/>
<path d="M101 60H87C86.2911 60 86 59.7201 86 59V44C86 43.2799 86.2911 43 87 43H94C94.5043 43 95.7954 43.5323 96 44L102 58C102.175 58.4009 102.241 58.6214 102 59C101.766 59.3712 101.438 60 101 60ZM89 57H99L94 46H89V57Z" fill="#1C1C1C"/>
<path d="M109 77H97C96.3025 77 96 76.6936 96 76C96 75.3064 96.3025 74 97 74H109C109.28 74 109 74.286 109 74V71C109 70.7211 109.288 70 109 70H107C106.303 70 106 69.6936 106 69V59C106 58.8069 106.079 58.1716 106 58L98 40C97.7771 39.5066 97.5465 39 97 39H73C72.2378 39 72 40.242 72 41V74H81C81.6975 74 82 75.3064 82 76C82 76.6936 81.6975 77 81 77H70C69.3025 77 69 76.6936 69 76V41C69 38.862 70.85 37 73 37H97C98.5388 37 99.3744 37.5985 100 39L108 57C108.223 57.5005 109 58.4494 109 59V68C110.675 68 112 69.3339 112 71V74C112 75.6661 110.675 77 109 77Z" fill="#1C1C1C"/>
<defs>
<linearGradient id="paint0_linear_19_1035" x1="122" y1="123" x2="1.00417" y2="3.00413" gradientUnits="userSpaceOnUse">
<stop stop-color="#FFE3B1"/>
<stop offset="1" stop-color="#FFD58A"/>
</linearGradient>
</defs>
</svg>
