<svg width="124" height="125" viewBox="0 0 124 125" fill="none" xmlns="http://www.w3.org/2000/svg">
<ellipse cx="62" cy="62.5" rx="60" ry="60.5" stroke="url(#paint0_linear_19_1119)" stroke-width="3"/>
<path d="M69 86C68.8053 86 68.1764 86.1114 68 86L57 79C47.4107 73.0328 39.4761 64.9844 34 55C31.122 49.7509 29.6024 43.9795 29 38L28 28C27.9757 27.6719 27.7688 27.2352 28 27C28.2251 26.7709 28.6714 26.9752 29 27L38 28C43.8838 28.6128 49.8342 30.0721 55 33C64.8145 38.5709 73.1283 47.2446 79 57L86 68C86.2555 68.4271 86.3529 68.6471 86 69L80 75C79.5802 75.4271 78.4198 75.4271 78 75C77.5802 74.5729 77.5802 74.4271 78 74L84 68L77 58C71.3231 48.5665 63.492 40.3852 54 35C49.0897 32.2145 43.5857 30.588 38 30L30 29L31 37C31.578 42.6886 33.2619 49.0047 36 54C41.2936 63.6563 48.7271 71.2247 58 77L69 84L74 78C74.4198 77.5729 74.5802 77.5729 75 78C75.4198 78.4271 75.4198 79.5729 75 80L70 86C69.7931 86.2104 69.2738 86 69 86V86Z" fill="black"/>
<path d="M47 53.9999C45.2084 53.9999 43.3673 53.4642 42 51.9999C39.2713 49.0777 39.2713 43.9221 42 40.9999C44.7287 38.0777 49.2713 38.0714 52 40.9999C54.7287 43.9221 54.7287 49.0777 52 51.9999C50.6327 53.4642 48.7975 53.9999 47 53.9999V53.9999ZM47 40.9999C45.7388 40.9999 44.9606 41.9712 44 42.9999C42.0787 45.0575 42.0787 47.9361 44 49.9999C45.9272 52.0575 48.0787 52.0575 50 49.9999C51.9213 47.9424 51.9213 45.0638 50 42.9999C49.0394 41.9712 48.2612 40.9999 47 40.9999Z" fill="black"/>
<path d="M77 102C77 102 77.03 102 77 102L70 101C64.2245 100.529 59.2439 98.0335 56 93C52.7562 87.9666 52.2644 81.7992 54 76C54.0958 75.6737 54.7008 75.1193 55 75C55.3053 74.8808 54.7247 74.8243 55 75L69 84C69.1497 84.1005 68.9103 83.8369 69 84L78 100C78.1915 100.358 78.2095 100.655 78 101C77.8085 101.32 77.3591 102 77 102V102ZM56 78C54.9706 82.7448 55.3726 87.9268 58 92C60.8848 96.4749 65.8649 98.5858 71 99L75 100L68 86L56 78V78Z" fill="black"/>
<path d="M99.9999 79C99.8187 79 99.1631 79.0996 98.9999 79L83.9999 70C83.8428 69.9067 84.0906 70.1618 83.9999 70L74.9999 56C74.8247 55.7137 74.8851 55.3174 74.9999 55C75.1147 54.6826 75.6857 54.0996 75.9999 54C81.5833 52.1952 87.1478 52.6206 91.9999 56C96.8461 59.3732 99.5467 64.9943 99.9999 71L101 78C101.03 78.4046 101.332 78.7822 101 79C100.825 79.112 100.199 79 99.9999 79V79ZM84.9999 68L98.9999 76L97.9999 71C97.6011 65.6602 95.3083 60.9998 90.9999 58C87.0783 55.2679 82.5621 54.9233 77.9999 56L84.9999 68V68Z" fill="black"/>
<path d="M89 91C87.9289 91 85.6278 89.7986 81 86C77.287 82.9573 73.2497 79.3737 70 76C66.9189 72.8011 64.5838 70.6056 64 69C63.2538 66.9445 64.4885 65.5373 65 65C65.5116 64.4689 67.0262 63.2252 69 64C70.5406 64.606 71.9189 66.8011 75 70C78.2497 73.3737 82.0693 77.1451 85 81C90.2718 87.9287 90.7944 90.1815 90 91C89.7593 91.2499 89.4694 91 89 91V91ZM67 66C66.7112 66 67.313 66.6751 67 67C66.5306 67.4873 65.7533 67.3065 66 68C66.4574 69.262 68.2198 71.1135 71 74C76.9819 80.2102 84.0272 86.3068 87 88C85.3632 84.9073 79.9759 77.2102 74 71C71.2198 68.1135 69.2097 66.4748 68 66C67.7774 65.9125 67.1445 66 67 66V66Z" fill="black"/>
<path d="M30 40C29.5338 40 29.1256 39.4722 29 39C28.8506 38.4381 29.4381 38.1494 30 38V38C34.4535 36.8343 37.8583 33.4593 39 29C39.1435 28.4381 39.4321 27.8565 40 28C40.5619 28.1434 41.1435 28.4381 41 29C39.667 34.2005 35.1947 38.6371 30 40V40C29.9104 40.0239 30.0897 40 30 40V40Z" fill="black"/>
<defs>
<linearGradient id="paint0_linear_19_1119" x1="122" y1="123" x2="1.00417" y2="3.00413" gradientUnits="userSpaceOnUse">
<stop stop-color="#FFE3B1"/>
<stop offset="1" stop-color="#FFD58A"/>
</linearGradient>
</defs>
</svg>
