<svg width="124" height="125" viewBox="0 0 124 125" fill="none" xmlns="http://www.w3.org/2000/svg">
<ellipse cx="62" cy="62.5" rx="60" ry="60.5" stroke="url(#paint0_linear_19_1078)" stroke-width="3"/>
<path d="M90 92H34C29.3416 92 26 87.7184 26 83V38C26 33.2816 29.3484 29 34 29H90C94.6584 29 98 33.2816 98 38V83C98 87.7253 94.6516 92 90 92ZM34 31C30.6775 31 28 34.6297 28 38V83C28 86.3772 30.6706 90 34 90H90C93.3294 90 96 86.3772 96 83V38C96 34.6228 93.3294 31 90 31H34V31Z" fill="black"/>
<path d="M97 70H80C75.0047 70 71 66.0761 71 61V60C71 54.9239 75.0047 51 80 51H97C97.6767 51 98 51.3123 98 52V69C98 69.6877 97.6767 70 97 70V70ZM80 53C76.3581 53 73 56.2993 73 60V61C73 64.7007 76.3581 68 80 68H96V53H80V53Z" fill="black"/>
<path d="M82 65C79.518 65 77 63.482 77 61C77 58.518 79.518 56 82 56C84.482 56 86 58.518 86 61C86 63.482 84.482 65 82 65ZM82 58C80.882 58 79 58.882 79 60C79 61.118 80.882 63 82 63C83.118 63 84 61.118 84 60C84 58.882 83.125 58 82 58Z" fill="black"/>
<path d="M29 38H27C26.3984 38 26 37.5511 26 37C26 36.4489 26.3984 36 27 36H29C29.6016 36 30 36.4489 30 37C30 37.5511 29.6016 38 29 38Z" fill="black"/>
<path d="M88 38H84C83.3298 38 83 37.5511 83 37C83 36.4489 83.3298 36 84 36H88C88.6702 36 89 36.4489 89 37C89 37.5511 88.6702 38 88 38ZM76 38H72C71.3298 38 71 37.5511 71 37C71 36.4489 71.3298 36 72 36H76C76.6702 36 77 36.4489 77 37C77 37.5511 76.6702 38 76 38ZM64 38H61C60.3298 38 59 37.5511 59 37C59 36.4489 60.3298 36 61 36H64C64.6702 36 66 36.4489 66 37C66 37.5511 64.6702 38 64 38ZM53 38H49C48.3298 38 48 37.5511 48 37C48 36.4489 48.3298 36 49 36H53C53.6702 36 54 36.4489 54 37C54 37.5511 53.6702 38 53 38ZM41 38H37C36.3298 38 36 37.5511 36 37C36 36.4489 36.3298 36 37 36H41C41.6702 36 42 36.4489 42 37C42 37.5511 41.6702 38 41 38Z" fill="black"/>
<path d="M97 38H95C94.3984 38 94 37.5511 94 37C94 36.4489 94.3984 36 95 36H97C97.6016 36 98 36.4489 98 37C98 37.5511 97.6016 38 97 38Z" fill="black"/>
<path d="M29 85H27C26.3984 85 26 84.5511 26 84C26 83.4489 26.3984 83 27 83H29C29.6016 83 30 83.4489 30 84C30 84.5511 29.6016 85 29 85Z" fill="black"/>
<path d="M88 85H84C83.3298 85 83 84.5511 83 84C83 83.4489 83.3298 83 84 83H88C88.6702 83 89 83.4489 89 84C89 84.5511 88.6702 85 88 85ZM76 85H72C71.3298 85 71 84.5511 71 84C71 83.4489 71.3298 83 72 83H76C76.6702 83 77 83.4489 77 84C77 84.5511 76.6702 85 76 85ZM64 85H61C60.3298 85 59 84.5511 59 84C59 83.4489 60.3298 83 61 83H64C64.6702 83 66 83.4489 66 84C66 84.5511 64.6702 85 64 85ZM53 85H49C48.3298 85 48 84.5511 48 84C48 83.4489 48.3298 83 49 83H53C53.6702 83 54 83.4489 54 84C54 84.5511 53.6702 85 53 85ZM41 85H37C36.3298 85 36 84.5511 36 84C36 83.4489 36.3298 83 37 83H41C41.6702 83 42 83.4489 42 84C42 84.5511 41.6702 85 41 85Z" fill="black"/>
<path d="M97 85H95C94.3984 85 94 84.5511 94 84C94 83.4489 94.3984 83 95 83H97C97.6016 83 98 83.4489 98 84C98 84.5511 97.6016 85 97 85Z" fill="black"/>
<defs>
<linearGradient id="paint0_linear_19_1078" x1="122" y1="123" x2="1.00417" y2="3.00413" gradientUnits="userSpaceOnUse">
<stop stop-color="#FFE3B1"/>
<stop offset="1" stop-color="#FFD58A"/>
</linearGradient>
</defs>
</svg>
