<svg width="124" height="125" viewBox="0 0 124 125" fill="none" xmlns="http://www.w3.org/2000/svg">
<ellipse cx="62" cy="62.5" rx="60" ry="60.5" stroke="url(#paint0_linear_19_1037)" stroke-width="3"/>
<path d="M93 82C92.2363 82 91 81.7876 91 81V49C91 32.3802 78.1161 19 62 19C45.8839 19 33 32.3802 33 49V81C33 81.7876 31.7637 82 31 82C30.2363 82 30 81.7876 30 81V49C30 30.8051 44.3565 16 62 16C79.6435 16 94 30.8051 94 49V81C94 81.7876 93.7637 82 93 82Z" fill="black"/>
<path d="M31 82H24C20.3793 82 17 78.7744 17 75V62C17 58.2256 20.3793 55 24 55H31C31.7488 55 32 55.2194 32 56V81C32 81.7806 31.7488 82 31 82ZM24 58C21.877 58 20 59.7869 20 62V75C20 77.2131 21.877 79 24 79H29V58H24Z" fill="black"/>
<path d="M99 82H92C91.2512 82 91 81.7806 91 81V56C91 55.2194 91.2512 55 92 55H99C102.621 55 106 58.2256 106 62V75C106 78.7744 102.621 82 99 82ZM94 79H99C101.123 79 103 77.2131 103 75V62C103 59.7869 101.123 58 99 58H94V79Z" fill="black"/>
<path d="M57 107C53.6929 107 51 104.307 51 101C51 97.6929 53.6929 95 57 95C60.3071 95 63 97.6929 63 101C63 104.307 60.3071 107 57 107ZM57 98C55.2205 98 54 99.2205 54 101C54 102.78 55.2205 104 57 104C58.7795 104 60 102.78 60 101C60 99.2205 58.7795 98 57 98Z" fill="black"/>
<path d="M53 103H51C39.2376 103 30 92.4322 30 80C30 79.2014 30.2444 79 31 79C31.7556 79 33 79.2014 33 80C33 90.835 40.7488 100 51 100H53C53.7556 100 54 101.201 54 102C54 102.799 53.7556 103 53 103V103Z" fill="black"/>
<path d="M60 67H47V65C50.7803 62.1994 53.6434 59.3471 55 58C56.3747 56.6352 57 55.2053 57 54C57 53.1315 56.6512 52.4609 56 52C55.3669 51.5214 54.9044 52 54 52C52.0104 52 50.2661 52.582 49 54L47 52C47.7778 51.0783 48.8243 50.4786 50 50C51.1938 49.5037 52.6977 49 54 49C55.8449 49 56.7339 49.0251 58 50C59.2661 50.9749 60 52.2984 60 54C60 55.5244 59.3023 57.4934 58 59C56.6977 60.5066 54.677 62.0148 52 64H60V67Z" fill="black"/>
<path d="M75 67H71V63H63V60L70 49H75V60H77V63H75V67ZM71 60V52L66 60H71Z" fill="black"/>
<defs>
<linearGradient id="paint0_linear_19_1037" x1="122" y1="123" x2="1.00417" y2="3.00413" gradientUnits="userSpaceOnUse">
<stop stop-color="#FFE3B1"/>
<stop offset="1" stop-color="#FFD58A"/>
</linearGradient>
</defs>
</svg>
